<svg id="Capa_1" enable-background="new 0 0 512.599 512.599" viewBox="0 0 512.599 512.599" xmlns="http://www.w3.org/2000/svg"><g><path d="m457.21 512.599h-401.821c-30.59 0-55.389-24.799-55.389-55.389v-401.821c0-30.59 24.799-55.389 55.389-55.389h401.82c30.591 0 55.389 24.799 55.389 55.389v401.82c.001 30.591-24.798 55.39-55.388 55.39z"/><g><g><g><g><path d="m256 60c-108.246 0-196 87.751-196 195.997 0 108.256 87.754 196.003 196 196.003 108.25 0 196-87.747 196-196.003 0-108.246-87.75-195.997-196-195.997zm89.888 282.702c-3.521 5.774-11.043 7.584-16.797 4.065-46.026-28.131-103.958-34.484-172.183-18.899-6.575 1.507-13.127-2.613-14.627-9.186-1.506-6.574 2.598-13.127 9.188-14.626 74.661-17.068 138.705-9.723 190.367 21.846 5.759 3.517 7.573 11.041 4.052 16.8zm23.983-53.372c-4.432 7.193-13.836 9.448-21.019 5.032-52.672-32.377-132.991-41.756-195.306-22.841-8.081 2.442-16.617-2.114-19.071-10.18-2.435-8.081 2.123-16.601 10.19-19.058 71.187-21.601 159.681-11.139 220.179 26.039 7.183 4.424 9.444 13.833 5.027 21.008zm2.069-55.572c-63.179-37.52-167.392-40.97-227.704-22.664-9.686 2.938-19.928-2.53-22.862-12.215-2.935-9.69 2.527-19.926 12.219-22.87 69.234-21.016 184.326-16.957 257.06 26.218 8.712 5.171 11.57 16.422 6.405 25.12-5.168 8.711-16.428 11.583-25.118 6.411z" fill="#fff"/></g></g></g></g></g><g/><g/><g/><g/><g/><g/><g/><g/><g/><g/><g/><g/><g/><g/><g/></svg>